<?xml version="1.0" encoding="UTF-8"?>
<svg width="58px" height="32px" viewBox="0 0 58 32" version="1.1" xmlns="http://www.w3.org/2000/svg" xmlns:xlink="http://www.w3.org/1999/xlink">
    <!-- Generator: sketchtool 41 (35326) - http://www.bohemiancoding.com/sketch -->
    <title>5A291182-1496-482B-A1C5-E1DA64A4650B</title>
    <desc>Created with sketchtool.</desc>
    <defs>
        <circle id="path-1" cx="25" cy="25" r="25"></circle>
        <filter x="-50%" y="-50%" width="200%" height="200%" filterUnits="objectBoundingBox" id="filter-2">
            <feOffset dx="1" dy="-3" in="SourceAlpha" result="shadowOffsetOuter1"></feOffset>
            <feGaussianBlur stdDeviation="2" in="shadowOffsetOuter1" result="shadowBlurOuter1"></feGaussianBlur>
            <feColorMatrix values="0 0 0 0 0   0 0 0 0 0   0 0 0 0 0  0 0 0 0.247112772 0" type="matrix" in="shadowBlurOuter1"></feColorMatrix>
        </filter>
    </defs>
    <g id="Guidlines" stroke="none" stroke-width="1" fill="none" fill-rule="evenodd">
        <g id="иконки-и-знаки" transform="translate(-602.000000, -1065.000000)">
            <g id="Group-10" transform="translate(602.000000, 1065.000000)">
                <g id="Group-7" transform="translate(3.000000, 7.000000)">
                    <g id="white-copy">
                        <use fill="black" fill-opacity="1" filter="url(#filter-2)" xlink:href="#path-1"></use>
                        <use fill="#030303" fill-rule="evenodd" xlink:href="#path-1"></use>
                    </g>
                    <g id="down-black-copy" transform="translate(17.000000, 11.000000)" stroke="#FFFFFF" fill="#FFFFFF">
                        <path d="M4.27653353,-3.32108634 C4.16402724,-3.43603909 3.9873756,-3.48611086 3.81920736,-3.45071511 C3.65103913,-3.41531935 3.51973701,-3.30043 3.47928472,-3.15328279 C3.43883242,-3.00613559 3.49605731,-2.8515654 3.62743188,-2.75312239 L11.6007941,4.61832461 L3.62282832,11.9857435 C3.49145375,12.0841865 3.43422886,12.2387567 3.47468116,12.3859039 C3.51513346,12.5330511 3.64643557,12.6479405 3.8146038,12.6833362 C3.98277204,12.718732 4.15942368,12.6686602 4.27192997,12.5537075 L12.5583341,4.90029253 C12.7381047,4.74429101 12.7401614,4.49054549 12.5629377,4.33232858 L4.27653353,-3.32108634 Z" id="Shape" transform="translate(8.078210, 4.616311) rotate(-270.000000) translate(-8.078210, -4.616311) "></path>
                    </g>
                </g>
            </g>
        </g>
    </g>
</svg>