<?xml version="1.0" encoding="UTF-8"?>
<svg width="20px" height="21px" viewBox="0 0 20 21" version="1.1" xmlns="http://www.w3.org/2000/svg" xmlns:xlink="http://www.w3.org/1999/xlink">
    <!-- Generator: sketchtool 41 (35326) - http://www.bohemiancoding.com/sketch -->
    <title>08E21D85-6BEB-4192-8F1E-873130306358</title>
    <desc>Created with sketchtool.</desc>
    <defs></defs>
    <g id="Guidlines" stroke="none" stroke-width="1" fill="none" fill-rule="evenodd">
        <g id="иконки-и-знаки" transform="translate(-62.000000, -973.000000)">
            <g id="Group-16" transform="translate(62.000000, 973.000000)">
                <g id="Group-13">
                    <g id="facebook-icon" transform="translate(0.000000, 0.258333)">
                        <g id="Group">
                            <path d="M18.8913858,19.9925094 C19.4981273,19.9925094 19.9925094,19.4981273 19.9925094,18.8913858 L19.9925094,1.1011236 C19.9925094,0.494382022 19.4981273,0 18.8913858,0 L1.1011236,0 C0.494382022,0 0,0.494382022 0,1.1011236 L0,18.8838951 C0,19.4906367 0.494382022,19.9850187 1.1011236,19.9850187 L18.8913858,19.9850187 L18.8913858,19.9925094 Z" id="Blue_2_" fill="#3C5A99"></path>
                            <path d="M13.7977528,19.9925094 L13.7977528,12.247191 L16.3970037,12.247191 L16.7865169,9.22846442 L13.7977528,9.22846442 L13.7977528,7.30337079 C13.7977528,6.42696629 14.0374532,5.83520599 15.2958801,5.83520599 L16.8913858,5.83520599 L16.8913858,3.13857678 C16.6142322,3.1011236 15.6629213,3.01872659 14.5617978,3.01872659 C12.2546816,3.01872659 10.6816479,4.42696629 10.6816479,7.00374532 L10.6816479,9.22846442 L8.07490637,9.22846442 L8.07490637,12.247191 L10.6816479,12.247191 L10.6816479,19.9925094 L13.7977528,19.9925094 Z" id="f_1_" fill="#FFFFFF"></path>
                        </g>
                    </g>
                </g>
            </g>
        </g>
    </g>
</svg>