<?xml version="1.0" encoding="UTF-8"?>
<svg width="24px" height="18px" viewBox="0 0 24 18" version="1.1" xmlns="http://www.w3.org/2000/svg" xmlns:xlink="http://www.w3.org/1999/xlink">
    <!-- Generator: sketchtool 41 (35326) - http://www.bohemiancoding.com/sketch -->
    <title>CDDD09D4-110C-4390-9439-894A0942C4FD</title>
    <desc>Created with sketchtool.</desc>
    <defs></defs>
    <g id="Guidlines" stroke="none" stroke-width="1" fill="none" fill-rule="evenodd">
        <g id="иконки-и-знаки" transform="translate(-62.000000, -817.000000)" fill="#000000">
            <g id="Group-12" transform="translate(62.000000, 817.000000)">
                <g id="mail-icon">
                    <g id="post-15-copy">
                        <g id="Layer_1">
                            <path d="M23.4,6.3 L23.4,16.2 C23.4,17.19414 22.59414,18 21.6,18 L1.8,18 C0.80586,18 0,17.19414 0,16.2 L0,6.3 C0,5.80302 0.40302,5.4 0.9,5.4 C1.02456,5.37264 1.15344,5.37264 1.278,5.4 L1.278,5.4 L11.7,12.6 L22.14,5.4 L22.14,5.4 C22.2588,5.37516 22.3812,5.37516 22.5,5.4 C22.99698,5.4 23.4,5.80302 23.4,6.3 Z M0.45,1.656 L0.45,1.656 L0.594,1.8 L11.7,9 L22.842,1.8 L22.842,1.8 L22.95,1.8 L22.95,1.8 C23.27328,1.62342 23.45256,1.2645 23.4,0.9 C23.4,0.40302 22.99698,0 22.5,0 L0.9,0 C0.40302,0 0,0.40302 0,0.9 C0.00468,1.2141 0.17604,1.5021 0.45,1.656 Z" id="Shape"></path>
                        </g>
                    </g>
                </g>
            </g>
        </g>
    </g>
</svg>