<?xml version="1.0" encoding="UTF-8"?>
<svg width="18px" height="11px" viewBox="0 0 18 11" version="1.1" xmlns="http://www.w3.org/2000/svg" xmlns:xlink="http://www.w3.org/1999/xlink">
    <!-- Generator: sketchtool 41 (35326) - http://www.bohemiancoding.com/sketch -->
    <title>55072427-2FE3-4C93-849F-28FF29F2F261</title>
    <desc>Created with sketchtool.</desc>
    <defs></defs>
    <g id="Page-1" stroke="none" stroke-width="1" fill="none" fill-rule="evenodd">
        <g id="иконки-и-знаки" transform="translate(-556.000000, -785.000000)" stroke="#030303" fill="#030303">
            <g id="down-black" transform="translate(556.000000, 785.000000)">
                <path d="M5.27653353,-2.32108634 C5.16402724,-2.43603909 4.9873756,-2.48611086 4.81920736,-2.45071511 C4.65103913,-2.41531935 4.51973701,-2.30043 4.47928472,-2.15328279 C4.43883242,-2.00613559 4.49605731,-1.8515654 4.62743188,-1.75312239 L12.6007941,5.61832461 L4.62282832,12.9857435 C4.49145375,13.0841865 4.43422886,13.2387567 4.47468116,13.3859039 C4.51513346,13.5330511 4.64643557,13.6479405 4.8146038,13.6833362 C4.98277204,13.718732 5.15942368,13.6686602 5.27192997,13.5537075 L13.5583341,5.90029253 C13.7381047,5.74429101 13.7401614,5.49054549 13.5629377,5.33232858 L5.27653353,-2.32108634 Z" id="Shape" transform="translate(9.078210, 5.616311) rotate(-270.000000) translate(-9.078210, -5.616311) "></path>
            </g>
        </g>
    </g>
</svg>