<?xml version="1.0" encoding="UTF-8"?>
<svg width="15px" height="9px" viewBox="0 0 15 9" version="1.1" xmlns="http://www.w3.org/2000/svg" xmlns:xlink="http://www.w3.org/1999/xlink">
    <!-- Generator: sketchtool 41 (35326) - http://www.bohemiancoding.com/sketch -->
    <title>89B6A5AF-CB9D-4858-929A-657F39FAE432</title>
    <desc>Created with sketchtool.</desc>
    <defs></defs>
    <g id="Page-1" stroke="none" stroke-width="1" fill="none" fill-rule="evenodd">
        <g id="иконки-и-знаки" transform="translate(-628.000000, -788.000000)" stroke="#FFFFFF" fill="#FFFFFF">
            <g id="down-white" transform="translate(628.000000, 788.000000)">
                <path d="M4.61764041,-1.89323829 C4.53234025,-1.9803933 4.39840629,-2.01835678 4.27090429,-1.99152038 C4.14340229,-1.96468398 4.0438515,-1.87757703 4.01318132,-1.76601279 C3.98251115,-1.65444854 4.02589799,-1.53725632 4.12550372,-1.46261868 L10.1707572,4.12627405 L4.12201339,9.71211274 C4.02240766,9.78675038 3.97902082,9.9039426 4.00969099,10.0155068 C4.04036116,10.1270711 4.13991196,10.214178 4.26741396,10.2410144 C4.39491596,10.2678508 4.52884992,10.2298874 4.61415008,10.1427323 L10.8967461,4.34005683 C11.0330448,4.22177941 11.0346041,4.02939432 10.9002365,3.90943723 L4.61764041,-1.89323829 Z" id="Shape" transform="translate(7.500000, 4.124747) rotate(-270.000000) translate(-7.500000, -4.124747) "></path>
            </g>
        </g>
    </g>
</svg>