<?xml version="1.0" encoding="UTF-8"?>
<svg width="25px" height="21px" viewBox="0 0 25 21" version="1.1" xmlns="http://www.w3.org/2000/svg" xmlns:xlink="http://www.w3.org/1999/xlink">
    <!-- Generator: sketchtool 41 (35326) - http://www.bohemiancoding.com/sketch -->
    <title>6CD9EFE8-25B7-44BC-8255-27020D2B0AD2</title>
    <desc>Created with sketchtool.</desc>
    <defs></defs>
    <g id="Guidlines" stroke="none" stroke-width="1" fill="none" fill-rule="evenodd">
        <g id="иконки-и-знаки" transform="translate(-122.000000, -973.000000)" fill="#55ACEE">
            <g id="Group-16" transform="translate(62.000000, 973.000000)">
                <g id="Group-15" transform="translate(60.000000, 0.000000)">
                    <g id="Twitter-icon" transform="translate(0.000000, 0.258333)">
                        <g id="Twitter">
                            <path d="M24.6098655,2.35874439 C23.7040359,2.76233184 22.735426,3.03139013 21.7219731,3.14798206 C22.7623318,2.52914798 23.5605381,1.5426009 23.9372197,0.367713004 C22.9596413,0.941704036 21.8834081,1.3632287 20.735426,1.58744395 C19.8206278,0.609865471 18.5112108,0 17.0672646,0 C14.2869955,0 12.0358744,2.25112108 12.0358744,5.03139013 C12.0358744,5.42600897 12.0807175,5.81165919 12.1704036,6.1793722 C7.98206278,5.96412556 4.27802691,3.96412556 1.79372197,0.923766816 C1.3632287,1.66816143 1.11210762,2.52914798 1.11210762,3.4529148 C1.11210762,5.20179372 2,6.73542601 3.35426009,7.64125561 C2.52914798,7.61434978 1.75784753,7.39013453 1.07623318,7.01345291 L1.07623318,7.07623318 C1.07623318,9.51569507 2.80717489,11.5426009 5.11210762,12.0089686 C4.69058296,12.1255605 4.24215247,12.1883408 3.78475336,12.1883408 C3.46188341,12.1883408 3.14798206,12.1524664 2.83408072,12.0986547 C3.47085202,14.0986547 5.33632287,15.5515695 7.53363229,15.5964126 C5.81165919,16.941704 3.64125561,17.7488789 1.28251121,17.7488789 C0.878923767,17.7488789 0.475336323,17.7219731 0.0807174888,17.67713 C2.30493274,19.103139 4.95067265,19.9372197 7.79372197,19.9372197 C17.0493274,19.9372197 22.1076233,12.2690583 22.1076233,5.62331839 C22.1076233,5.40807175 22.0986547,5.1838565 22.0896861,4.96860987 C23.0852018,4.25112108 23.9372197,3.3632287 24.6098655,2.35874439 Z" id="Shape"></path>
                        </g>
                    </g>
                </g>
            </g>
        </g>
    </g>
</svg>