<?xml version="1.0" encoding="UTF-8"?>
<svg width="20px" height="12px" viewBox="0 0 20 12" version="1.1" xmlns="http://www.w3.org/2000/svg" xmlns:xlink="http://www.w3.org/1999/xlink">
    <!-- Generator: sketchtool 41 (35326) - http://www.bohemiancoding.com/sketch -->
    <title>3B4E90D8-5BDD-4D2E-9DC0-78512366C428</title>
    <desc>Created with sketchtool.</desc>
    <defs></defs>
    <g id="Guidlines" stroke="none" stroke-width="1" fill="none" fill-rule="evenodd">
        <g id="иконки-и-знаки" transform="translate(-92.000000, -977.000000)" fill="#436EAB">
            <g id="Group-16" transform="translate(62.000000, 973.000000)">
                <g id="Group-14" transform="translate(30.000000, 4.000000)">
                    <g id="vk-icon" transform="translate(0.000000, 0.258333)">
                        <path d="M17.212799,7.19662171 C17.8762347,7.84435438 18.5764282,8.45372778 19.1714657,9.16677278 C19.4343166,9.48364694 19.683144,9.81059921 19.8735342,10.1783326 C20.1432991,10.7010656 19.8989638,11.2762985 19.4302541,11.3075093 L16.5165899,11.3061812 C15.7651075,11.3685248 15.1656169,11.0660256 14.6615557,10.5521988 C14.2581583,10.1413015 13.8845655,9.70399793 13.4966759,9.27923342 C13.3376529,9.10564012 13.171208,8.94228118 12.9723804,8.81314089 C12.5746471,8.55497751 12.2293746,8.63400074 12.0020705,9.0488434 C11.7705867,9.47079541 11.7180478,9.93798169 11.6953135,10.4082148 C11.6641026,11.0943068 11.4567204,11.2746969 10.7675425,11.3061031 C9.2946948,11.375556 7.89688597,11.1527441 6.5983347,10.4097383 C5.45349396,9.75473998 4.56576192,8.83001585 3.79302957,7.78318266 C2.28861947,5.74478958 1.13647406,3.5048736 0.101008029,1.2022234 C-0.132077296,0.683435703 0.0383910063,0.404959873 0.610811376,0.395077086 C1.56131669,0.376600572 2.51170482,0.377928694 3.46334294,0.393748965 C3.84967005,0.399413012 4.10541156,0.62097493 4.25459086,0.985934908 C4.76884732,2.25042377 5.39810348,3.45346748 6.18794515,4.56858174 C6.39829616,4.86545596 6.61278779,5.16236924 6.91817761,5.371314 C7.25606734,5.60268058 7.51333229,5.5260011 7.67227719,5.14959584 C7.7731363,4.91092459 7.81731587,4.65385495 7.84005018,4.39826969 C7.91536249,3.51885794 7.92528433,2.64093056 7.79321437,1.76460474 C7.71212083,1.21769211 7.40407477,0.863630542 6.85833401,0.760154252 C6.57985818,0.707380953 6.62130339,0.603748413 6.75614678,0.444803518 C6.99032586,0.170663614 7.21059871,-8.8817842e-16 7.64969912,-8.8817842e-16 L10.9425811,-8.8817842e-16 C11.4609782,0.102304419 11.576095,0.335194431 11.6470714,0.856794623 L11.6498839,4.51448032 C11.6442199,4.71639385 11.750743,5.31565009 12.114453,5.44928255 C12.405546,5.54443855 12.5974205,5.31154854 12.7721075,5.12697871 C13.5605039,4.2902231 14.1231977,3.30131945 14.6258917,2.27733776 C14.8489771,1.82706551 15.0408125,1.35948861 15.2267105,0.892263279 C15.3644445,0.545584503 15.5805767,0.374999014 15.9710835,0.382538057 L19.1402939,0.385350549 C19.234278,0.385350549 19.3293559,0.386717733 19.4203713,0.40230363 C19.9543933,0.493319016 20.1007601,0.723044974 19.9357996,1.24452798 C19.6759175,2.06268989 19.1702548,2.74452403 18.675842,3.42948317 C18.1473278,4.16077031 17.5820558,4.86705752 17.0579556,5.60268058 C16.5763944,6.27455382 16.6146365,6.61314668 17.212799,7.19662171 L17.212799,7.19662171 L17.212799,7.19662171 Z" id="Shape"></path>
                    </g>
                </g>
            </g>
        </g>
    </g>
</svg>